<mxfile host="app.diagrams.net" agent="Mozilla/5.0 (Windows NT 10.0; Win64; x64) AppleWebKit/537.36 (KHTML, like Gecko) Chrome/128.0.0.0 Safari/537.36" version="24.7.12">
  <diagram name="Page-1" id="J3sYzZ-rPOc-jnRvBvM9">
    <mxGraphModel grid="1" page="1" gridSize="10" guides="1" tooltips="1" connect="1" arrows="1" fold="1" pageScale="1" pageWidth="850" pageHeight="1100" math="0" shadow="0">
      <root>
        <mxCell id="0" />
        <mxCell id="1" parent="0" />
        <mxCell id="-DpvB9yk5obaCV5__9ws-25" value="" style="edgeStyle=orthogonalEdgeStyle;rounded=0;orthogonalLoop=1;jettySize=auto;html=1;" edge="1" parent="1" source="-DpvB9yk5obaCV5__9ws-1" target="-DpvB9yk5obaCV5__9ws-24">
          <mxGeometry relative="1" as="geometry" />
        </mxCell>
        <mxCell id="-DpvB9yk5obaCV5__9ws-1" value="Start" style="strokeWidth=2;html=1;shape=mxgraph.flowchart.start_1;whiteSpace=wrap;" vertex="1" parent="1">
          <mxGeometry x="87.5" y="-200" width="130" height="70" as="geometry" />
        </mxCell>
        <mxCell id="-DpvB9yk5obaCV5__9ws-36" value="" style="edgeStyle=orthogonalEdgeStyle;rounded=0;orthogonalLoop=1;jettySize=auto;html=1;" edge="1" parent="1" source="-DpvB9yk5obaCV5__9ws-4" target="-DpvB9yk5obaCV5__9ws-35">
          <mxGeometry relative="1" as="geometry" />
        </mxCell>
        <mxCell id="-DpvB9yk5obaCV5__9ws-4" value="Enter Password&lt;div&gt;userpas&lt;/div&gt;" style="shape=parallelogram;html=1;strokeWidth=2;perimeter=parallelogramPerimeter;whiteSpace=wrap;rounded=1;arcSize=12;size=0.23;" vertex="1" parent="1">
          <mxGeometry x="90" y="210" width="125" height="70" as="geometry" />
        </mxCell>
        <mxCell id="-DpvB9yk5obaCV5__9ws-6" value="&lt;div&gt;&lt;span style=&quot;background-color: initial;&quot;&gt;Count = n-1&lt;/span&gt;&lt;br&gt;&lt;/div&gt;" style="strokeWidth=2;html=1;shape=mxgraph.flowchart.decision;whiteSpace=wrap;" vertex="1" parent="1">
          <mxGeometry x="97.5" y="600" width="110" height="120" as="geometry" />
        </mxCell>
        <mxCell id="-DpvB9yk5obaCV5__9ws-7" value="" style="endArrow=classic;html=1;rounded=0;exitX=1;exitY=0.5;exitDx=0;exitDy=0;exitPerimeter=0;" edge="1" parent="1" source="-DpvB9yk5obaCV5__9ws-6" target="-DpvB9yk5obaCV5__9ws-8">
          <mxGeometry width="50" height="50" relative="1" as="geometry">
            <mxPoint x="400" y="430" as="sourcePoint" />
            <mxPoint x="320" y="400" as="targetPoint" />
          </mxGeometry>
        </mxCell>
        <mxCell id="-DpvB9yk5obaCV5__9ws-15" value="" style="edgeStyle=orthogonalEdgeStyle;rounded=0;orthogonalLoop=1;jettySize=auto;html=1;" edge="1" parent="1" source="-DpvB9yk5obaCV5__9ws-8" target="-DpvB9yk5obaCV5__9ws-14">
          <mxGeometry relative="1" as="geometry" />
        </mxCell>
        <mxCell id="-DpvB9yk5obaCV5__9ws-8" value="Display Password Incorrect&lt;br&gt;Number of tries: count&lt;div&gt;is n=1&lt;/div&gt;" style="rounded=1;whiteSpace=wrap;html=1;absoluteArcSize=1;arcSize=14;strokeWidth=2;" vertex="1" parent="1">
          <mxGeometry x="350" y="610" width="150" height="100" as="geometry" />
        </mxCell>
        <mxCell id="-DpvB9yk5obaCV5__9ws-9" value="Yes" style="text;html=1;align=center;verticalAlign=middle;whiteSpace=wrap;rounded=0;" vertex="1" parent="1">
          <mxGeometry x="550" y="630" width="60" height="30" as="geometry" />
        </mxCell>
        <mxCell id="-DpvB9yk5obaCV5__9ws-10" value="No" style="text;html=1;align=center;verticalAlign=middle;whiteSpace=wrap;rounded=0;" vertex="1" parent="1">
          <mxGeometry x="152.5" y="530" width="60" height="30" as="geometry" />
        </mxCell>
        <mxCell id="-DpvB9yk5obaCV5__9ws-41" value="" style="edgeStyle=orthogonalEdgeStyle;rounded=0;orthogonalLoop=1;jettySize=auto;html=1;" edge="1" parent="1" source="-DpvB9yk5obaCV5__9ws-12" target="-DpvB9yk5obaCV5__9ws-40">
          <mxGeometry relative="1" as="geometry" />
        </mxCell>
        <mxCell id="-DpvB9yk5obaCV5__9ws-12" value="Display Password Correct" style="rounded=1;whiteSpace=wrap;html=1;absoluteArcSize=1;arcSize=14;strokeWidth=2;" vertex="1" parent="1">
          <mxGeometry x="-140" y="382.5" width="100" height="100" as="geometry" />
        </mxCell>
        <mxCell id="-DpvB9yk5obaCV5__9ws-14" value="Display Account Blocked" style="rounded=1;whiteSpace=wrap;html=1;absoluteArcSize=1;arcSize=14;strokeWidth=2;" vertex="1" parent="1">
          <mxGeometry x="640" y="610" width="150" height="100" as="geometry" />
        </mxCell>
        <mxCell id="-DpvB9yk5obaCV5__9ws-18" value="" style="endArrow=classic;html=1;rounded=0;exitX=0.5;exitY=0;exitDx=0;exitDy=0;entryX=0.88;entryY=0.571;entryDx=0;entryDy=0;entryPerimeter=0;" edge="1" parent="1" source="-DpvB9yk5obaCV5__9ws-8" target="-DpvB9yk5obaCV5__9ws-4">
          <mxGeometry width="50" height="50" relative="1" as="geometry">
            <mxPoint x="400" y="430" as="sourcePoint" />
            <mxPoint x="210" y="200" as="targetPoint" />
            <Array as="points">
              <mxPoint x="425" y="250" />
            </Array>
          </mxGeometry>
        </mxCell>
        <mxCell id="-DpvB9yk5obaCV5__9ws-32" value="" style="edgeStyle=orthogonalEdgeStyle;rounded=0;orthogonalLoop=1;jettySize=auto;html=1;" edge="1" parent="1" source="-DpvB9yk5obaCV5__9ws-24" target="-DpvB9yk5obaCV5__9ws-31">
          <mxGeometry relative="1" as="geometry" />
        </mxCell>
        <mxCell id="-DpvB9yk5obaCV5__9ws-24" value="prepas= predefined password" style="whiteSpace=wrap;html=1;strokeWidth=2;" vertex="1" parent="1">
          <mxGeometry x="92.5" y="-70" width="120" height="60" as="geometry" />
        </mxCell>
        <mxCell id="-DpvB9yk5obaCV5__9ws-33" value="" style="edgeStyle=orthogonalEdgeStyle;rounded=0;orthogonalLoop=1;jettySize=auto;html=1;" edge="1" parent="1" source="-DpvB9yk5obaCV5__9ws-31" target="-DpvB9yk5obaCV5__9ws-4">
          <mxGeometry relative="1" as="geometry" />
        </mxCell>
        <mxCell id="-DpvB9yk5obaCV5__9ws-31" value="&lt;div&gt;&lt;span style=&quot;background-color: initial;&quot;&gt;n=4&lt;/span&gt;&lt;/div&gt;&lt;div&gt;&lt;span style=&quot;background-color: initial;&quot;&gt;Count = n&amp;nbsp;&lt;/span&gt;&lt;br&gt;&lt;/div&gt;" style="strokeWidth=2;html=1;shape=mxgraph.flowchart.decision;whiteSpace=wrap;" vertex="1" parent="1">
          <mxGeometry x="97.5" y="40" width="110" height="120" as="geometry" />
        </mxCell>
        <mxCell id="-DpvB9yk5obaCV5__9ws-38" value="" style="edgeStyle=orthogonalEdgeStyle;rounded=0;orthogonalLoop=1;jettySize=auto;html=1;" edge="1" parent="1" source="-DpvB9yk5obaCV5__9ws-35" target="-DpvB9yk5obaCV5__9ws-12">
          <mxGeometry relative="1" as="geometry" />
        </mxCell>
        <mxCell id="-DpvB9yk5obaCV5__9ws-39" value="" style="edgeStyle=orthogonalEdgeStyle;rounded=0;orthogonalLoop=1;jettySize=auto;html=1;" edge="1" parent="1" source="-DpvB9yk5obaCV5__9ws-35" target="-DpvB9yk5obaCV5__9ws-6">
          <mxGeometry relative="1" as="geometry" />
        </mxCell>
        <mxCell id="-DpvB9yk5obaCV5__9ws-35" value="Is userpas==prepas" style="rhombus;whiteSpace=wrap;html=1;strokeWidth=2;rounded=1;arcSize=12;" vertex="1" parent="1">
          <mxGeometry x="93.75" y="370" width="117.5" height="125" as="geometry" />
        </mxCell>
        <mxCell id="-DpvB9yk5obaCV5__9ws-40" value="End" style="strokeWidth=2;html=1;shape=mxgraph.flowchart.start_1;whiteSpace=wrap;" vertex="1" parent="1">
          <mxGeometry x="-290" y="402.5" width="100" height="60" as="geometry" />
        </mxCell>
        <mxCell id="-DpvB9yk5obaCV5__9ws-42" value="No" style="text;html=1;align=center;verticalAlign=middle;whiteSpace=wrap;rounded=0;" vertex="1" parent="1">
          <mxGeometry x="425" y="510" width="60" height="30" as="geometry" />
        </mxCell>
        <mxCell id="-DpvB9yk5obaCV5__9ws-43" value="Yes" style="text;html=1;align=center;verticalAlign=middle;whiteSpace=wrap;rounded=0;" vertex="1" parent="1">
          <mxGeometry x="10" y="402.5" width="60" height="30" as="geometry" />
        </mxCell>
      </root>
    </mxGraphModel>
  </diagram>
</mxfile>
